<svg width="24" height="24" viewBox="0 0 24 24" fill="none" xmlns="http://www.w3.org/2000/svg">
<circle cx="12" cy="12" r="11.5" fill="#FCFCFC" stroke="#CECECE"/>
<mask id="mask0_1856_9892" style="mask-type:alpha" maskUnits="userSpaceOnUse" x="0" y="0" width="24" height="24">
<circle cx="12" cy="12" r="12" fill="#FCFCFC"/>
</mask>
<g mask="url(#mask0_1856_9892)">
<g clip-path="url(#clip0_1856_9892)">
<path d="M53.1416 21.8647C53.1494 21.8492 53.1494 21.8259 53.1571 21.8104L28.3384 13.7936C28.3384 13.7781 28.3461 13.7703 28.3461 13.7548L35.2997 15.5242C35.2842 15.3458 35.2532 15.2138 35.2532 15.0896C35.2532 14.787 35.1057 14.6473 34.8263 14.5542C34.2288 14.3524 33.6389 14.1196 33.0491 13.8945C32.4438 13.6694 31.8385 13.4366 31.2331 13.2116C31.2409 13.196 31.2409 13.1805 31.2486 13.165L45.4895 17.2006C45.4973 17.185 45.4973 17.1695 45.5051 17.154L34.8341 13.002C35.0048 12.8235 35.1368 12.6683 35.2842 12.5286C36.1379 11.6982 36.9062 10.798 37.5891 9.82789C38.179 8.98973 38.6912 8.11277 38.9473 7.11164C39.2732 5.87769 39.4983 4.62045 39.5138 3.33993C39.5216 2.71132 39.7233 2.10598 40.0959 1.60153C40.3908 1.18246 40.7167 0.78666 41.0116 0.367582C41.3143 -0.0592575 41.1824 -0.424011 40.6701 -0.579225C40.2123 -0.734439 39.7078 -0.664593 39.3043 -0.385207C38.6524 0.0726746 38.1013 0.654728 37.9772 1.4696C37.8685 2.23015 37.7987 2.99846 37.7832 3.76677C37.7288 5.24907 37.5193 6.6848 36.7743 7.9886C36.0448 9.24583 35.16 10.4099 34.1589 11.4576C33.5536 12.094 32.8706 12.3579 32.0402 12.2415C31.1245 12.1173 30.2087 11.9543 29.3007 11.7758C26.825 11.3102 24.3494 10.829 21.8815 10.3479C21.703 10.3091 21.54 10.2159 21.4081 10.084C21.2063 9.85117 20.9347 9.6882 20.6397 9.61835C20.4302 9.57178 20.2284 9.49418 20.0189 9.42433C19.4213 9.23031 18.8237 9.03629 18.2184 8.84228C18.2184 8.83452 18.2262 8.82676 18.2262 8.819L26.0102 10.6272C26.0179 10.604 26.0257 10.5729 26.0334 10.5496L18.3193 8.08173C18.3271 8.06621 18.3271 8.04292 18.3348 8.0274L19.9258 8.26798C19.5998 7.9886 19.2428 7.78682 18.9091 7.554C18.5754 7.32118 18.2106 7.19701 17.8226 7.24357C17.1629 7.32894 16.5033 7.46863 15.8436 7.56952C15.7117 7.5928 15.5332 7.5928 15.4401 7.5152C14.7183 6.9409 13.9034 6.73136 12.9954 6.87106C12.491 6.94866 12.0021 6.91762 11.552 6.59943C11.3812 6.49078 11.2027 6.42094 11.0087 6.37437C10.5431 6.2502 10.2714 6.37437 9.99205 6.76241C9.9222 6.84777 9.82132 6.9021 9.71267 6.91762C8.88227 6.99523 8.17604 7.3367 7.55519 7.87995C7.37669 8.04292 7.2758 8.22918 7.35341 8.48528C7.41549 8.68706 7.34565 8.8578 7.17491 9.00525C6.98089 9.19151 6.8024 9.38553 6.63166 9.58731C6.47645 9.7658 6.49197 9.92102 6.63166 10.115C6.90329 10.4953 7.15939 10.8833 7.41549 11.2714C7.56295 11.4964 7.75697 11.5585 8.00531 11.4654C8.09068 11.4421 8.16828 11.3956 8.23813 11.3412C8.59512 10.9998 8.94436 11.0153 9.34015 11.2869C9.72819 11.5508 10.1162 11.4887 10.4887 11.2015C10.9156 10.8833 11.6451 11.1084 11.8546 11.5973C12.1806 12.3579 12.522 13.1107 12.8558 13.8712C12.8635 13.879 12.8402 13.9023 12.848 13.8945C12.3979 13.879 11.9478 13.8867 11.5054 13.8557C11.0397 13.8247 10.5819 13.7393 10.1162 13.7393C9.58073 13.7393 9.09181 13.9333 8.82018 14.43C8.68049 14.6939 8.5796 14.9732 8.51752 15.2604C8.30798 16.083 8.48647 16.828 9.02196 17.4799C9.29359 17.8059 9.89892 17.7749 9.98429 17.4101C10.0852 16.991 10.3258 16.5564 9.92997 16.1141C9.61178 15.7571 9.8446 15.2604 10.318 15.1673C10.512 15.1207 10.7138 15.1285 10.9001 15.175C11.777 15.4389 12.6462 15.7415 13.5309 15.9977C14.4389 16.2538 15.3702 16.4633 16.286 16.6961C16.5266 16.7582 16.6585 16.7039 16.674 16.4245C16.7051 15.889 16.7672 15.3613 16.806 14.8335C16.8215 14.5852 16.8215 14.3369 16.8292 14.0963C17.0233 14.7792 17.225 15.4622 17.0776 16.1684C17.0388 16.3624 17.1319 16.4478 17.2871 16.4943C18.133 16.7349 18.9634 17.0453 19.8249 17.1928C22.6886 17.674 25.56 18.1008 28.4315 18.5432C28.7807 18.5975 29.13 18.6441 29.4792 18.6984C29.4792 18.6829 29.487 18.6596 29.487 18.6441C26.7086 17.9378 23.9303 17.2316 21.152 16.5254C21.9513 16.5875 22.7429 16.6884 23.5345 16.797C24.264 16.8979 24.9857 16.9833 25.7385 16.8436C26.3439 16.7427 26.957 16.7116 27.5701 16.7582C29.0679 16.8358 30.2863 17.4644 31.1555 18.7139C31.4737 19.1718 31.7841 19.6219 32.0635 20.1031C32.4127 20.6929 32.9172 21.0809 33.538 21.3293C33.8097 21.4457 34.0891 21.5388 34.3762 21.6086C35.3773 21.8259 36.3862 22.0277 37.3951 22.214C37.8297 22.2916 38.241 22.4778 38.5825 22.765C39.475 23.5023 40.1735 24.4103 40.8642 25.326C41.26 25.8538 41.679 26.366 42.1136 26.8626C42.3309 27.1187 42.7345 27.0644 42.8664 26.7928C42.9828 26.5522 43.0061 26.3039 42.8587 26.0555C42.8121 25.9779 42.7423 25.8926 42.75 25.8227C42.7888 25.5356 42.6336 25.3648 42.4396 25.1863C42.23 24.9923 42.036 24.775 41.8187 24.5888C40.9495 23.8204 40.2666 22.8659 39.8242 21.7871C39.7621 21.6707 39.6535 21.5854 39.5293 21.5388C37.853 20.8559 36.1767 20.1884 34.5004 19.5133C34.3917 19.4667 34.2908 19.4279 34.1822 19.3813C34.1899 19.3658 34.1977 19.3425 34.1977 19.327L48.3222 22.8659C48.2601 22.796 48.1825 22.7495 48.0894 22.7262C44.178 21.4612 40.2743 20.1962 36.3552 18.9545C35.8818 18.807 35.6179 18.5975 35.6257 18.1008C35.6257 17.8913 35.5015 17.8214 35.3308 17.7671C34.3374 17.4334 33.3518 17.0919 32.3584 16.7504L29.6965 15.8424C29.6965 15.8269 29.7043 15.8192 29.712 15.8036L53.1416 21.8647ZM7.84233 9.18375C7.88114 9.01301 7.86562 8.83452 7.9277 8.80347C8.11396 8.71035 8.33126 8.59394 8.57184 8.79571L7.84233 9.18375ZM11.2726 8.78795C11.2415 8.44648 11.2493 8.07397 11.1562 7.7325C10.9932 7.11164 10.7836 7.02627 10.1938 7.26685C10.1317 7.29014 10.0697 7.31342 9.99205 7.34446C10.1628 7.06507 10.5586 6.80121 10.8457 6.79345C10.9389 6.80121 11.032 6.83225 11.1018 6.9021C11.5597 7.2979 11.6373 8.31455 11.2726 8.78795Z" fill="#2BA55D"/>
<path d="M5.5527 16.122C5.42077 16.3005 5.34316 16.5256 5.32764 16.7507C5.3354 16.9214 5.413 17.0844 5.54494 17.1853C5.65359 17.2551 5.8476 17.193 6.00282 17.1853C6.0649 17.1775 6.12699 17.1309 6.18132 17.1465C6.60815 17.2163 6.77113 17.1775 6.95739 16.805C7.17469 16.3781 7.51616 16.1919 7.95852 16.1143C8.03613 16.0988 8.09821 16.0444 8.13701 15.9746C8.22238 15.5245 8.29223 15.0666 8.38536 14.5078C7.70241 14.7717 7.04275 14.9735 6.43742 15.2839C6.09595 15.4624 5.81656 15.8116 5.5527 16.122Z" fill="#2BA55D"/>
<path d="M32.7693 22.1371C31.512 21.8344 30.2703 21.4619 28.9976 21.2368C27.0807 20.8954 25.1483 20.6548 23.2236 20.3754C22.6881 20.2978 22.1526 20.2202 21.6171 20.1426C21.6171 20.1581 21.6094 20.1736 21.6094 20.1891L37.5033 23.3477C37.4102 23.2857 37.3093 23.2391 37.2006 23.2158C35.7183 22.8666 34.2438 22.5018 32.7693 22.1371Z" fill="#2BA55D"/>
<path d="M25.164 19.8238L25.1717 19.7772L16.6039 18L16.5884 18.0621C17.3101 18.2871 18.0319 18.52 18.7614 18.7295C19.4521 18.9313 20.1428 19.1486 20.8412 19.2805C21.726 19.4435 22.6185 19.5133 23.5109 19.622C24.0697 19.6841 24.613 19.7539 25.164 19.8238Z" fill="#2BA55D"/>
<path d="M10.4264 15.5019C10.2711 15.5252 10.1004 15.595 10.1625 15.7735C10.2091 15.9054 10.3565 16.0684 10.4807 16.0917C11.2102 16.2003 11.9397 16.2624 12.6692 16.3633C13.1348 16.4254 13.5927 16.5263 14.0506 16.6039L14.0816 16.4875C12.9641 16.1615 11.8466 15.8278 10.7213 15.5019C10.6281 15.4864 10.5272 15.4864 10.4264 15.5019Z" fill="#2BA55D"/>
<path d="M11.2722 8.77966C11.2412 8.43819 11.2489 8.06567 11.1558 7.7242C10.9928 7.10334 10.7833 7.01798 10.1935 7.25856C10.1314 7.28184 10.0693 7.30512 9.9917 7.33617C10.1624 7.05678 10.5582 6.79292 10.8454 6.78516C10.9385 6.79292 11.0316 6.83172 11.1015 6.89381C11.5594 7.29736 11.637 8.31401 11.2722 8.77966Z" fill="#237745"/>
<path d="M15.3236 9.41602C15.2304 9.4393 15.1451 9.47034 15.0597 9.50914C15.0209 9.53243 15.0054 9.57123 15.0054 9.6178C15.0364 9.71868 15.083 9.81181 15.1295 9.90494C15.1528 9.92822 15.1839 9.93598 15.2149 9.92046C15.3313 9.85838 15.4245 9.74973 15.471 9.62556C15.5021 9.5169 15.4477 9.4393 15.3236 9.41602Z" fill="#131413"/>
<path d="M14.3846 8.69437C14.4699 8.67885 14.5553 8.66333 14.6407 8.63229C14.6795 8.62453 14.7105 8.59348 14.726 8.56244C14.7648 8.49259 14.7338 8.40723 14.6639 8.36842C14.6019 8.32962 14.532 8.29082 14.4544 8.26753C14.4544 8.26753 14.4466 8.25977 14.4389 8.25977C14.3846 8.23649 14.3225 8.26754 14.2992 8.32186C14.2682 8.37618 14.2449 8.43051 14.2293 8.49259C14.1905 8.65557 14.2061 8.67885 14.3846 8.69437Z" fill="#131413"/>
<path d="M14.0429 9.93576C13.9886 9.89695 13.9265 9.86591 13.8644 9.84263C13.8566 9.84263 13.8566 9.83487 13.8489 9.83487C13.8023 9.81935 13.748 9.84263 13.7324 9.88919C13.7014 9.95904 13.6781 10.0366 13.6626 10.1143C13.6548 10.1608 13.6781 10.1919 13.7247 10.1919C13.748 10.1919 13.779 10.1996 13.8023 10.1996V10.2074C13.8721 10.1996 13.9497 10.1841 14.0196 10.1608C14.0506 10.1531 14.0817 10.1298 14.0972 10.0987C14.1282 10.0444 14.105 9.9668 14.0429 9.93576Z" fill="#131413"/>
<path d="M13.5072 8.90479C13.4374 8.93583 13.3753 8.97463 13.321 9.02896C13.2977 9.06 13.2899 9.0988 13.3054 9.13761C13.352 9.20745 13.4063 9.26954 13.4684 9.32386C13.4917 9.33162 13.5227 9.33162 13.546 9.3161C13.6003 9.23073 13.6469 9.13761 13.678 9.09104C13.6935 8.92807 13.6159 8.85822 13.5072 8.90479Z" fill="#131413"/>
<path d="M13.0962 7.86434C13.1195 7.89538 13.1506 7.91866 13.1894 7.92642C13.267 7.94195 13.3446 7.88762 13.3601 7.81001C13.3834 7.73241 13.3989 7.66256 13.4067 7.58495C13.4067 7.57719 13.4067 7.57719 13.4067 7.56943C13.4144 7.50735 13.3679 7.46078 13.3135 7.45302C13.2515 7.4375 13.1894 7.4375 13.1273 7.4375C12.9488 7.4375 12.941 7.46078 12.9721 7.63152C13.0109 7.71689 13.0497 7.79449 13.0962 7.86434Z" fill="#131413"/>
<path d="M12.3277 8.93533C12.4829 8.90429 12.5295 8.8034 12.4596 8.71803C12.413 8.6637 12.3587 8.60938 12.2889 8.57058C12.2501 8.55505 12.2113 8.56281 12.1802 8.5861C12.1259 8.64818 12.0793 8.72579 12.0405 8.79564C12.0405 8.82668 12.0483 8.84996 12.0716 8.86548C12.1725 8.89653 12.2733 8.91981 12.3277 8.93533Z" fill="#131413"/>
<path d="M12.5604 9.78875C12.506 9.77323 12.4517 9.74995 12.3974 9.74219C12.3741 9.76547 12.3198 9.78099 12.312 9.81203C12.2965 9.87412 12.2887 9.94397 12.2965 10.0061C12.2965 10.0216 12.3353 10.0604 12.3508 10.0604C12.4362 10.0449 12.5138 10.0138 12.5914 9.97501C12.6147 9.95949 12.6302 9.93621 12.638 9.91292C12.6457 9.85084 12.6069 9.79651 12.5604 9.78875Z" fill="#131413"/>
<path d="M12.3587 10.8981C12.3044 10.8826 12.2501 10.8593 12.1957 10.8516C12.1724 10.8748 12.1181 10.8904 12.1104 10.9214C12.0948 10.9835 12.0871 11.0533 12.0948 11.1154C12.0948 11.1309 12.1336 11.1698 12.1492 11.1698C12.2345 11.1542 12.3121 11.1232 12.3897 11.0844C12.413 11.0689 12.4286 11.0456 12.4363 11.0223C12.4441 10.968 12.413 10.9136 12.3587 10.8981Z" fill="#131413"/>
<path d="M22.2226 15.9436C22.1682 15.9048 22.1062 15.8737 22.0441 15.8504C22.0363 15.8504 22.0363 15.8427 22.0285 15.8427C21.982 15.8272 21.9277 15.8504 21.9121 15.897C21.8811 15.9669 21.8578 16.0445 21.8423 16.1221C21.8345 16.1686 21.8578 16.1997 21.9044 16.1997C21.9277 16.1997 21.9587 16.2074 21.982 16.2074V16.2152C22.0518 16.2074 22.1294 16.1919 22.1993 16.1686C22.2303 16.1609 22.2614 16.1376 22.2769 16.1065C22.3079 16.0522 22.2846 15.9746 22.2226 15.9436Z" fill="#131413"/>
<path d="M23.41 12.7231C23.3402 12.7542 23.2781 12.793 23.2238 12.8473C23.2005 12.8784 23.1927 12.9172 23.2083 12.956C23.2548 13.0258 23.3092 13.0879 23.3712 13.1422C23.3945 13.15 23.4256 13.15 23.4489 13.1345C23.5032 13.0491 23.5497 12.956 23.5808 12.9094C23.5963 12.7464 23.5187 12.6766 23.41 12.7231Z" fill="#131413"/>
<path d="M22.3082 11.4413C22.2461 11.4258 22.184 11.4258 22.1219 11.4258C21.9434 11.4258 21.9357 11.4491 21.9667 11.6198C22.0055 11.6974 22.0443 11.775 22.0909 11.8449C22.1142 11.8759 22.1452 11.8992 22.184 11.9069C22.2616 11.9225 22.3392 11.8681 22.3547 11.7905C22.378 11.7129 22.3935 11.6431 22.4013 11.5655C22.4013 11.5577 22.4013 11.5577 22.4013 11.55C22.4091 11.5034 22.3703 11.4491 22.3082 11.4413Z" fill="#131413"/>
<path d="M21.3223 12.9158C21.4775 12.8848 21.5241 12.7839 21.4542 12.6985C21.4077 12.6442 21.3533 12.5898 21.2835 12.551C21.2447 12.5355 21.2059 12.5433 21.1748 12.5666C21.1205 12.6287 21.074 12.7063 21.0352 12.7761C21.0352 12.8071 21.0429 12.8304 21.0662 12.8459C21.1671 12.8847 21.268 12.9003 21.3223 12.9158Z" fill="#131413"/>
<path d="M19.8323 13.7542C19.7935 13.7386 19.7547 13.7464 19.7237 13.7697C19.6694 13.8318 19.6228 13.9094 19.584 13.9792C19.584 14.0103 19.5917 14.0336 19.615 14.0491C19.7082 14.0801 19.809 14.0956 19.8711 14.1112C20.0263 14.0801 20.0729 13.9792 20.0031 13.8939C19.9487 13.8395 19.8944 13.793 19.8323 13.7542Z" fill="#131413"/>
<path d="M21.3382 14.3206C21.2994 14.3051 21.2606 14.3128 21.2295 14.3361C21.1752 14.3982 21.1286 14.4758 21.0898 14.5456C21.0898 14.5767 21.0976 14.6 21.1209 14.6155C21.214 14.6465 21.3149 14.662 21.377 14.6776C21.5322 14.6465 21.5788 14.5456 21.5089 14.4603C21.4624 14.4137 21.408 14.3594 21.3382 14.3206Z" fill="#131413"/>
<path d="M23.2547 14.4138C23.2004 14.3982 23.1461 14.3749 23.0917 14.3672C23.0684 14.3905 23.0141 14.406 23.0064 14.437C22.9908 14.4991 22.9831 14.569 22.9908 14.631C22.9908 14.6466 23.0296 14.6854 23.0452 14.6854C23.1305 14.6699 23.2081 14.6388 23.2857 14.6C23.309 14.5845 23.3245 14.5612 23.3323 14.5379C23.3401 14.4758 23.309 14.4215 23.2547 14.4138Z" fill="#131413"/>
<path d="M19.6151 16.363C19.5607 16.3474 19.5064 16.3242 19.4521 16.3164C19.4288 16.3397 19.3745 16.3552 19.3667 16.3863C19.3512 16.4483 19.3434 16.5182 19.3512 16.5803C19.3512 16.5958 19.39 16.6346 19.4055 16.6346C19.4909 16.6191 19.5685 16.588 19.6461 16.5492C19.6694 16.5337 19.6849 16.5104 19.6927 16.4871C19.7004 16.4251 19.6616 16.3707 19.6151 16.363Z" fill="#131413"/>
<path d="M19.3746 12.149C19.491 12.0869 19.5841 11.9782 19.6307 11.8541C19.6617 11.7454 19.6074 11.6678 19.4832 11.6445C19.3901 11.6678 19.3047 11.6989 19.2194 11.7377C19.1806 11.7609 19.165 11.7997 19.165 11.8463C19.1961 11.9472 19.2426 12.0403 19.2892 12.1335C19.3125 12.1567 19.3435 12.1567 19.3746 12.149Z" fill="#131413"/>
<path d="M19.3048 10.2167C19.3436 10.1468 19.3126 10.0615 19.2427 10.0227C19.1806 9.98387 19.1108 9.94506 19.0332 9.91402L19.0254 9.90626C18.9711 9.88298 18.909 9.91402 18.8857 9.96835C18.8547 10.0227 18.8314 10.077 18.8159 10.1391C18.7693 10.3098 18.7848 10.3253 18.9633 10.3486C19.0487 10.3331 19.1341 10.3176 19.2194 10.2865C19.2505 10.2788 19.2815 10.2477 19.3048 10.2167Z" fill="#131413"/>
<path d="M20.8648 10.425C20.8027 10.3862 20.7329 10.3474 20.6552 10.3164L20.6475 10.3086C20.5932 10.2853 20.5311 10.3164 20.5078 10.3707C20.4768 10.425 20.4535 10.4793 20.4379 10.5414C20.3914 10.7122 20.4069 10.7277 20.5854 10.751C20.6708 10.7354 20.7561 10.7199 20.8415 10.6889C20.8803 10.6811 20.9114 10.6501 20.9269 10.619C20.9657 10.5492 20.9346 10.4638 20.8648 10.425Z" fill="#131413"/>
<path d="M18.3111 13.0635C18.3422 13.0014 18.3189 12.9238 18.2646 12.8928C18.2102 12.854 18.1481 12.8229 18.0861 12.7997C18.0783 12.7997 18.0783 12.7919 18.0705 12.7919C18.024 12.7764 17.9697 12.7997 17.9541 12.8462C17.9231 12.9161 17.8998 12.9937 17.8843 13.0713C17.8765 13.1178 17.8998 13.1489 17.9464 13.1489C17.9697 13.1489 18.0007 13.1566 18.024 13.1566V13.1644C18.0938 13.1566 18.1714 13.1411 18.2413 13.1178C18.2646 13.1178 18.2956 13.0946 18.3111 13.0635Z" fill="#131413"/>
<path d="M18.6527 15.1526C18.5984 15.1137 18.5363 15.0827 18.4742 15.0594C18.4665 15.0594 18.4665 15.0517 18.4587 15.0517C18.4122 15.0361 18.3578 15.0594 18.3423 15.106C18.3113 15.1758 18.288 15.2534 18.2725 15.331C18.2647 15.3776 18.288 15.4087 18.3346 15.4087C18.3578 15.4087 18.3889 15.4164 18.4122 15.4164V15.4242C18.482 15.4164 18.5596 15.4009 18.6295 15.3776C18.6605 15.3698 18.6915 15.3466 18.7071 15.3155C18.7381 15.269 18.7148 15.1914 18.6527 15.1526Z" fill="#131413"/>
<path d="M17.9855 11.3639C18.0398 11.2786 18.0864 11.1854 18.1174 11.1389C18.1252 10.9759 18.0476 10.9138 17.9467 10.9526C17.8768 10.9836 17.8147 11.0224 17.7604 11.0768C17.7371 11.1078 17.7294 11.1466 17.7449 11.1854C17.7915 11.2553 17.8458 11.3174 17.9079 11.3717C17.9389 11.3872 17.9622 11.3794 17.9855 11.3639Z" fill="#131413"/>
<path d="M17.3414 9.46279C17.2793 9.44727 17.2172 9.44727 17.1551 9.44727C16.9766 9.44727 16.9689 9.47055 16.9999 9.64128C17.0387 9.71889 17.0775 9.7965 17.1241 9.86634C17.1474 9.89739 17.1784 9.92067 17.2172 9.92843C17.2948 9.94395 17.3724 9.88963 17.3879 9.81202C17.4112 9.73441 17.4267 9.66457 17.4345 9.58696C17.4345 9.5792 17.4345 9.5792 17.4345 9.57144C17.4423 9.52487 17.3957 9.47055 17.3414 9.46279Z" fill="#131413"/>
<path d="M16.2002 11.0221C16.2002 11.0532 16.208 11.0765 16.2312 11.092C16.3244 11.123 16.4253 11.1386 16.4873 11.1541C16.6426 11.123 16.6891 11.0221 16.6193 10.9368C16.5727 10.8825 16.5184 10.8281 16.4485 10.7893C16.4097 10.7738 16.3709 10.7816 16.3399 10.8048C16.2856 10.8825 16.239 10.9523 16.2002 11.0221Z" fill="#131413"/>
<path d="M16.7127 12.0173C16.6584 12.0017 16.6041 11.9785 16.5497 11.9707C16.5265 11.994 16.4721 12.0095 16.4644 12.0406C16.4488 12.1026 16.4411 12.1725 16.4488 12.2346C16.4488 12.2501 16.4876 12.2889 16.5032 12.2889C16.5885 12.2734 16.6661 12.2423 16.7438 12.2035C16.767 12.188 16.7826 12.1647 16.7903 12.1414C16.7981 12.0794 16.767 12.025 16.7127 12.0173Z" fill="#131413"/>
<path d="M16.5184 13.1345C16.464 13.1189 16.4097 13.0957 16.3554 13.0879C16.3321 13.1112 16.2778 13.1267 16.27 13.1577C16.2545 13.2198 16.2467 13.2897 16.2545 13.3518C16.2545 13.3673 16.2933 13.4061 16.3088 13.4061C16.3942 13.3906 16.4718 13.3595 16.5494 13.3207C16.5727 13.3052 16.5882 13.2819 16.596 13.2586C16.6037 13.1965 16.5649 13.1422 16.5184 13.1345Z" fill="#131413"/>
<path d="M14.7026 14.8329C14.625 14.7786 14.5474 14.7242 14.4698 14.6777C14.431 14.6622 14.3844 14.6699 14.3456 14.701C14.2836 14.7863 14.237 14.8795 14.1904 14.9726C14.1904 15.0036 14.206 15.0347 14.2292 15.0502C14.3534 15.1045 14.4931 15.1123 14.6173 15.0735C14.7337 15.0347 14.757 14.9415 14.7026 14.8329Z" fill="#131413"/>
<path d="M10.6206 14.2899C10.543 14.2356 10.4654 14.1813 10.3878 14.1347C10.349 14.1192 10.3024 14.127 10.2636 14.158C10.2015 14.2434 10.155 14.3365 10.1084 14.4296C10.1084 14.4607 10.1239 14.4917 10.1472 14.5072C10.2714 14.5616 10.4111 14.5693 10.5352 14.5305C10.6516 14.4917 10.6749 14.3986 10.6206 14.2899Z" fill="#131413"/>
<path d="M8.93655 15.1829C9.0452 15.1441 9.06849 15.0509 9.01416 14.9423C8.93655 14.8879 8.85895 14.8336 8.78134 14.7871C8.74254 14.7715 8.69597 14.7793 8.65717 14.8103C8.59508 14.8957 8.54852 14.9888 8.50195 15.082C8.50195 15.113 8.51747 15.1441 8.54076 15.1596C8.67269 15.2139 8.81238 15.2217 8.93655 15.1829Z" fill="#131413"/>
<path d="M9.19238 16.8661C9.11477 16.8118 9.03717 16.7575 8.95956 16.7109C8.92076 16.6954 8.87419 16.7031 8.83539 16.7342C8.7733 16.8195 8.72674 16.9127 8.68018 17.0058C8.68018 17.0368 8.6957 17.0679 8.71898 17.0834C8.84315 17.1377 8.98284 17.1455 9.10701 17.1067C9.21566 17.0679 9.24671 16.9748 9.19238 16.8661Z" fill="#131413"/>
<path d="M10.0151 17.0848C9.93753 17.0305 9.85992 16.9762 9.78232 16.9296C9.74351 16.9141 9.69695 16.9219 9.65814 16.9529C9.59606 17.0383 9.54949 17.1314 9.50293 17.2245C9.50293 17.2556 9.51845 17.2866 9.54173 17.3022C9.6659 17.3565 9.8056 17.3642 9.92977 17.3254C10.0384 17.2866 10.0695 17.1935 10.0151 17.0848Z" fill="#131413"/>
<path d="M15.0906 13.4442C15.0906 13.4365 15.0906 13.4365 15.0906 13.4287C15.075 13.3744 15.0207 13.3356 14.9586 13.3511C14.8965 13.3589 14.8422 13.3821 14.7801 13.4054C14.6171 13.4675 14.6094 13.4908 14.7025 13.646C14.7646 13.7081 14.8344 13.7624 14.9043 13.809C14.9353 13.8323 14.9741 13.84 15.0129 13.8323C15.0906 13.8167 15.1449 13.7391 15.1294 13.6615C15.1294 13.5917 15.1138 13.5141 15.0906 13.4442Z" fill="#131413"/>
<path d="M13.4764 13.9254C13.4764 13.9176 13.4764 13.9099 13.4687 13.9099C13.4531 13.8633 13.3988 13.8323 13.3522 13.8478C13.2746 13.8711 13.197 13.8944 13.1272 13.9254C13.1194 13.9254 13.1117 13.9332 13.1117 13.9332C13.0884 13.9564 13.0806 13.9952 13.1039 14.0185C13.1194 14.0418 13.1349 14.0651 13.1427 14.0806L13.1349 14.0884C13.1893 14.1427 13.2436 14.1893 13.3057 14.2281C13.329 14.2513 13.3678 14.2591 13.3988 14.2513C13.4687 14.2436 13.5152 14.1815 13.5075 14.1117C13.5075 14.0573 13.4997 13.9875 13.4764 13.9254Z" fill="#131413"/>
<path d="M14.0118 13.0718C13.9497 13.033 13.8799 13.0097 13.8023 13.002C13.7635 13.002 13.7247 13.0252 13.7092 13.0563C13.6859 13.1339 13.6626 13.2193 13.6626 13.3046C13.6626 13.3201 13.7014 13.3667 13.7169 13.359C13.8178 13.3512 13.9187 13.3357 13.973 13.3279C14.105 13.2348 14.105 13.1261 14.0118 13.0718Z" fill="#131413"/>
<path d="M14.6947 11.8842C14.6559 11.9618 14.6171 12.0394 14.586 12.1248C14.5705 12.1636 14.5705 12.2024 14.5938 12.2412C14.6326 12.311 14.7179 12.3421 14.7878 12.311C14.8576 12.28 14.9275 12.249 14.9973 12.2101C14.9973 12.2101 15.0051 12.2101 15.0051 12.2024C15.0594 12.1713 15.0749 12.1093 15.0439 12.0549C15.0206 12.0006 14.9818 11.9463 14.943 11.8997C14.8421 11.7523 14.8188 11.7523 14.6947 11.8842Z" fill="#131413"/>
<path d="M13.461 11.8223C13.3756 11.8223 13.2902 11.8223 13.2126 11.8378C13.1893 11.8533 13.1738 11.8766 13.1738 11.9076C13.2126 12.0008 13.2514 12.0939 13.2747 12.1482C13.3989 12.2491 13.4998 12.2258 13.5231 12.1172C13.5386 12.0473 13.5463 11.9697 13.5386 11.8999C13.5308 11.8611 13.4998 11.83 13.461 11.8223Z" fill="#131413"/>
<path d="M14.6714 10.7363C14.5861 10.7363 14.5007 10.7363 14.4231 10.7518C14.3998 10.7674 14.3843 10.7907 14.3843 10.8217C14.4231 10.9148 14.4619 11.0079 14.4852 11.0623C14.6093 11.1632 14.7102 11.1399 14.7335 11.0312C14.749 10.9614 14.7568 10.8838 14.749 10.8139C14.7413 10.7751 14.7102 10.7441 14.6714 10.7363Z" fill="#131413"/>
<path d="M11.1483 9.08984C11.0551 9.11313 10.9698 9.14417 10.8844 9.18297C10.8456 9.20625 10.8301 9.24506 10.8301 9.29162C10.8611 9.39251 10.9077 9.48564 10.9542 9.57877C10.9775 9.60205 11.0086 9.60981 11.0396 9.59429C11.156 9.53221 11.2492 9.42356 11.2957 9.29938C11.3268 9.18297 11.2724 9.10537 11.1483 9.08984Z" fill="#131413"/>
<path d="M9.54154 9.86759C9.56482 9.86759 9.59586 9.87535 9.61914 9.87535V9.88311C9.68899 9.87535 9.7666 9.85983 9.83644 9.83654C9.86749 9.82878 9.89853 9.8055 9.91405 9.77446C9.94509 9.71237 9.92181 9.63477 9.86749 9.60372C9.81316 9.56492 9.75107 9.53388 9.68899 9.5106C9.68123 9.5106 9.68123 9.50284 9.67347 9.50284C9.6269 9.48731 9.57258 9.5106 9.55706 9.55716C9.52601 9.62701 9.50273 9.70461 9.48721 9.78222C9.47169 9.82878 9.49497 9.85983 9.54154 9.86759Z" fill="#131413"/>
<path d="M7.95841 10.7756C7.90408 10.7368 7.842 10.7058 7.77991 10.6825C7.77215 10.6825 7.77215 10.6747 7.76439 10.6747C7.71782 10.6592 7.6635 10.6825 7.64798 10.729C7.61693 10.7989 7.59365 10.8765 7.57813 10.9541C7.57037 11.0007 7.59365 11.0317 7.64022 11.0317C7.6635 11.0317 7.69454 11.0395 7.71782 11.0395V11.0472C7.78767 11.0395 7.86528 11.0239 7.93512 11.0007C7.96617 10.9929 7.99721 10.9696 8.01273 10.9386C8.04377 10.8843 8.02049 10.8066 7.95841 10.7756Z" fill="#131413"/>
<path d="M9.51815 7.72563C9.5492 7.66355 9.52591 7.58594 9.47159 7.5549C9.41726 7.51609 9.35518 7.48505 9.29309 7.46177C9.28533 7.46177 9.28533 7.45401 9.27757 7.45401C9.23101 7.43849 9.17668 7.46177 9.16116 7.50833C9.13012 7.57818 9.10684 7.65579 9.09131 7.73339C9.08355 7.77996 9.10684 7.811 9.1534 7.811C9.17668 7.811 9.20772 7.81876 9.23101 7.81876V7.82652C9.30085 7.81876 9.37846 7.80324 9.44831 7.77996C9.47159 7.7722 9.50263 7.74891 9.51815 7.72563Z" fill="#131413"/>
<path d="M10.6049 8.23654C10.5506 8.19773 10.4885 8.16669 10.4264 8.14341C10.4186 8.14341 10.4186 8.13565 10.4109 8.13565C10.3643 8.12013 10.31 8.14341 10.2945 8.18997C10.2634 8.25982 10.2401 8.33743 10.2246 8.41504C10.2169 8.4616 10.2401 8.49264 10.2867 8.49264C10.31 8.49264 10.341 8.5004 10.3643 8.5004V8.50816C10.4342 8.5004 10.5118 8.48488 10.5816 8.4616C10.6127 8.45384 10.6437 8.43056 10.6592 8.39951C10.6903 8.34519 10.667 8.26758 10.6049 8.23654Z" fill="#131413"/>
<path d="M17.411 7.85568C17.3567 7.81688 17.2946 7.78583 17.2325 7.76255C17.2248 7.76255 17.2248 7.75479 17.217 7.75479C17.1705 7.73927 17.1161 7.76255 17.1006 7.80911C17.0696 7.87896 17.0463 7.95657 17.0308 8.03418C17.023 8.08074 17.0463 8.11179 17.0929 8.11179C17.1161 8.11179 17.1472 8.11955 17.1705 8.11955V8.12731C17.2403 8.11955 17.3179 8.10403 17.3878 8.08074C17.4188 8.07298 17.4498 8.0497 17.4654 8.01866C17.4886 7.96433 17.4654 7.89448 17.411 7.85568Z" fill="#131413"/>
<path d="M16.045 8.84996V8.85772C16.1149 8.84996 16.1925 8.83444 16.2623 8.81116C16.2934 8.8034 16.3244 8.78011 16.3399 8.74907C16.371 8.68699 16.3477 8.60938 16.2934 8.57833C16.239 8.53953 16.177 8.50849 16.1149 8.48521C16.1071 8.48521 16.1071 8.47745 16.0993 8.47745C16.0528 8.46192 15.9985 8.48521 15.9829 8.53177C15.9519 8.60162 15.9286 8.67922 15.9131 8.75683C15.9053 8.8034 15.9286 8.83444 15.9752 8.83444C15.9907 8.8422 16.0217 8.8422 16.045 8.84996Z" fill="#131413"/>
<path d="M7.59384 9.79759C7.61712 9.74326 7.59384 9.68118 7.53951 9.65789C7.49295 9.64237 7.44639 9.62685 7.39982 9.61133C7.37654 9.63461 7.33774 9.65013 7.32997 9.68117C7.31445 9.74326 7.31445 9.81311 7.31445 9.87519C7.31445 9.89071 7.3455 9.92952 7.35326 9.92952C7.4231 9.914 7.49295 9.88295 7.55503 9.84415C7.57832 9.82863 7.58608 9.81311 7.59384 9.79759Z" fill="#131413"/>
<path d="M10.3099 10.7283C10.434 10.8292 10.5349 10.8059 10.5582 10.6972C10.5737 10.6274 10.5815 10.5498 10.5737 10.4799C10.566 10.4411 10.5349 10.4101 10.4961 10.4023C10.4108 10.4023 10.3254 10.4023 10.2478 10.4179C10.2245 10.4334 10.209 10.4567 10.209 10.4877C10.24 10.5886 10.2866 10.6817 10.3099 10.7283Z" fill="#131413"/>
<path d="M12.1648 14.6233C12.1338 14.6155 12.0872 14.5845 12.0561 14.6C11.9941 14.6233 11.9397 14.6621 11.8932 14.7086C11.8777 14.7164 11.8699 14.7707 11.8854 14.7785C11.9475 14.8328 12.0251 14.8794 12.1027 14.9182C12.1881 14.9492 12.2502 14.8794 12.2269 14.7862C12.2114 14.7319 12.1881 14.6776 12.1648 14.6233Z" fill="#131413"/>
<path d="M9.83675 15.4933C9.82123 15.439 9.79794 15.3846 9.77466 15.3303C9.74362 15.3225 9.69706 15.2915 9.66601 15.307C9.60393 15.3303 9.5496 15.3691 9.50304 15.4157C9.48752 15.4234 9.47976 15.4778 9.49528 15.4855C9.55736 15.5398 9.63497 15.5864 9.71258 15.6252C9.79018 15.6562 9.86003 15.5786 9.83675 15.4933Z" fill="#131413"/>
<path d="M16.2468 15.2131C16.2158 15.2054 16.1692 15.1743 16.1382 15.1898C16.0761 15.2131 16.0218 15.2519 15.9752 15.2985C15.9597 15.3062 15.9519 15.3606 15.9674 15.3683C16.0295 15.4227 16.1071 15.4692 16.1847 15.508C16.2701 15.5391 16.3322 15.4692 16.3089 15.3761C16.2856 15.314 16.2701 15.2597 16.2468 15.2131Z" fill="#131413"/>
<path d="M5.55262 16.1607C5.4983 16.2383 5.44397 16.3159 5.39741 16.3935C5.38189 16.4323 5.38965 16.4789 5.42069 16.5177C5.50606 16.5798 5.59919 16.6263 5.69232 16.6729C5.72336 16.6729 5.7544 16.6574 5.76992 16.6341C5.82425 16.5099 5.83201 16.3702 5.79321 16.2461C5.7544 16.1297 5.66127 16.1064 5.55262 16.1607Z" fill="#131413"/>
<path d="M7.01161 15.9283C6.95728 16.0059 6.90296 16.0835 6.85639 16.1611C6.84087 16.1999 6.84863 16.2465 6.87968 16.2853C6.96504 16.3474 7.05817 16.3939 7.1513 16.4405C7.18234 16.4405 7.21339 16.425 7.22891 16.4017C7.28323 16.2775 7.29099 16.1378 7.25219 16.0136C7.21339 15.8972 7.12026 15.874 7.01161 15.9283Z" fill="#131413"/>
<path d="M7.70253 14.8966C7.6482 14.9742 7.59388 15.0518 7.54731 15.1294C7.53179 15.1682 7.53955 15.2148 7.57059 15.2536C7.65596 15.3156 7.74909 15.3622 7.84222 15.4088C7.87326 15.4088 7.9043 15.3933 7.91983 15.37C7.97415 15.2458 7.98191 15.1061 7.94311 14.9819C7.9043 14.8655 7.81118 14.8345 7.70253 14.8966Z" fill="#131413"/>
<path d="M30.1541 14.2983L35.3925 15.6332L35.377 15.5167C35.3693 15.4547 35.3615 15.4003 35.3537 15.346C35.3382 15.2451 35.3305 15.1675 35.3305 15.0899C35.3305 14.7795 35.183 14.5855 34.8493 14.4768C34.4225 14.3371 33.9879 14.1664 33.5688 14.0112C33.4058 13.9491 33.2351 13.887 33.0721 13.8249L32.428 13.5843L45.4582 17.2784L45.528 17.3017L45.5979 17.1154L34.9657 12.979C34.989 12.9479 35.02 12.9247 35.0433 12.8936C35.1442 12.785 35.2373 12.6841 35.3305 12.591C36.1841 11.7606 36.9602 10.8526 37.6509 9.88247C38.3727 8.86582 38.7995 8.0199 39.0246 7.14294C39.3971 5.71497 39.5756 4.5043 39.5911 3.34795C39.5989 2.73486 39.7929 2.1528 40.1576 1.65612C40.3051 1.45434 40.4603 1.2448 40.6077 1.05078C40.763 0.849004 40.9259 0.631704 41.0734 0.422165C41.2364 0.197105 41.2829 -0.0279558 41.2208 -0.214213C41.151 -0.408231 40.9725 -0.555684 40.7009 -0.641052C40.2275 -0.827309 39.692 -0.749702 39.2729 -0.462556C38.4735 0.103976 38.0312 0.724833 37.9148 1.44658C37.8061 2.20713 37.7363 2.9832 37.7208 3.75151C37.682 4.95442 37.5267 6.52208 36.7196 7.93453C35.9901 9.18401 35.1132 10.3481 34.112 11.388C33.53 12.0089 32.8548 12.2572 32.0632 12.1486C31.1086 12.0167 30.1541 11.8459 29.3237 11.683C26.8635 11.2173 24.3646 10.7361 21.9044 10.255C21.7415 10.2162 21.5862 10.1386 21.4776 10.0222C21.2603 9.78158 20.9809 9.61084 20.6705 9.53324C20.523 9.5022 20.3756 9.44787 20.2359 9.40131C20.1738 9.37802 20.1117 9.3625 20.0574 9.33922L19.8168 9.26161L26.0875 10.7129L26.1495 10.4878L18.9476 8.18287L20.2126 8.37689L20.0031 8.1984C19.778 8.00438 19.5374 7.84916 19.3046 7.69395C19.1959 7.6241 19.0873 7.5465 18.9786 7.47665C18.6061 7.21279 18.2181 7.10414 17.8378 7.15846C17.4498 7.21279 17.054 7.28263 16.6737 7.34472C16.4021 7.39128 16.1305 7.44561 15.8588 7.48441C15.7114 7.50769 15.5717 7.49217 15.5174 7.44561C14.7801 6.86355 13.9652 6.64625 13.0107 6.77819C12.4208 6.86355 11.994 6.78595 11.6215 6.51432C11.443 6.40567 11.2567 6.3203 11.055 6.2815C10.566 6.15733 10.2634 6.27374 9.95294 6.70058C9.89861 6.77043 9.81325 6.81699 9.72788 6.82475C8.913 6.90236 8.19126 7.22055 7.5316 7.8026C7.29878 8.00438 7.22893 8.22944 7.30654 8.48554C7.3531 8.65628 7.30654 8.78821 7.15132 8.9279C6.9573 9.11416 6.77105 9.31594 6.60807 9.51772C6.43734 9.71173 6.42958 9.91351 6.60031 10.1463C6.84089 10.48 7.07371 10.8293 7.29101 11.163L7.38414 11.3027C7.54712 11.5588 7.7877 11.6364 8.05933 11.5277C8.15245 11.4967 8.24558 11.4501 8.32319 11.388C8.63362 11.0931 8.94405 11.0776 9.33208 11.3415C9.72788 11.6131 10.147 11.5821 10.5738 11.2561C10.7445 11.1242 10.9851 11.0854 11.2335 11.1552C11.4973 11.2251 11.7224 11.4036 11.8155 11.6209C12.0328 12.1253 12.2579 12.6298 12.4752 13.1264C12.5761 13.3515 12.6769 13.5843 12.7778 13.8094C12.6769 13.8094 12.5683 13.8016 12.4674 13.8016C12.1492 13.7939 11.8543 13.7939 11.5439 13.7706C11.3576 13.7628 11.1714 13.7395 10.9851 13.7163C10.7135 13.6852 10.4341 13.6542 10.1547 13.6542C9.5261 13.6542 9.0527 13.9025 8.78883 14.3837C8.64914 14.6553 8.54049 14.9347 8.4784 15.2296C8.2611 16.0755 8.4396 16.8438 8.99837 17.519C9.16135 17.7208 9.46401 17.8139 9.72788 17.7518C9.9219 17.7053 10.0616 17.5811 10.1004 17.4104C10.1159 17.3405 10.1392 17.2707 10.1625 17.1931C10.2634 16.8438 10.3875 16.4403 10.0305 16.0445C9.91413 15.9125 9.87533 15.7496 9.92966 15.5944C9.99174 15.4159 10.1625 15.2762 10.372 15.2296C10.5505 15.1908 10.7445 15.1908 10.9153 15.2374C11.3111 15.3538 11.7069 15.4857 12.0871 15.6099C12.5605 15.7651 13.0572 15.9203 13.5461 16.06C14.1592 16.2307 14.7879 16.3859 15.3932 16.5334C15.6959 16.6032 15.9985 16.6809 16.3012 16.7585C16.4021 16.7817 16.5495 16.805 16.6504 16.7274C16.728 16.6653 16.7746 16.5644 16.7824 16.417C16.7979 16.1143 16.8289 15.8117 16.86 15.5167C16.8833 15.2917 16.8988 15.0589 16.9221 14.826C16.9298 14.7562 16.9298 14.6941 16.9298 14.6243C17.0617 15.1287 17.1394 15.6254 17.0307 16.1376C16.9841 16.3549 17.0773 16.4946 17.2946 16.5567C17.5429 16.6265 17.799 16.7119 18.0474 16.7817C18.6294 16.9602 19.227 17.1543 19.8401 17.2551C21.9355 17.6121 24.0774 17.9381 26.1418 18.2563C26.9101 18.3727 27.6784 18.4891 28.4467 18.6133C28.6873 18.6521 28.9201 18.6831 29.1607 18.7219C29.2693 18.7374 29.3858 18.753 29.4944 18.7685L29.572 18.7762L29.6031 18.5745L22.1916 16.7119C22.6572 16.7662 23.1151 16.8283 23.5264 16.8826C24.2016 16.9758 24.9699 17.0766 25.7537 16.9292C26.3513 16.8283 26.9644 16.805 27.5697 16.8438C29.0831 16.9292 30.2627 17.5733 31.0931 18.7685C31.4035 19.2186 31.7217 19.6765 32.0011 20.1499C32.3426 20.7319 32.8393 21.1433 33.5145 21.4071C33.7861 21.5235 34.0732 21.6244 34.3681 21.6943C35.1908 21.8728 36.285 22.0978 37.3948 22.2996C37.8139 22.3695 38.2174 22.5557 38.5434 22.8351C39.4281 23.5646 40.1188 24.4571 40.8095 25.3806C41.1665 25.854 41.5623 26.3507 42.0668 26.925C42.1754 27.0492 42.3306 27.119 42.4858 27.119C42.5091 27.119 42.5324 27.119 42.5557 27.1112C42.7264 27.088 42.8739 26.9871 42.9515 26.8396C43.0989 26.5525 43.0912 26.2731 42.9437 26.0247C42.936 26.0092 42.9204 25.9937 42.9127 25.9704C42.8894 25.9316 42.8428 25.8695 42.8506 25.8385C42.8972 25.5125 42.7109 25.3108 42.5169 25.14C42.4237 25.0547 42.3229 24.9538 42.2375 24.8684C42.1288 24.7598 42.0202 24.6511 41.9038 24.5424C41.0423 23.7897 40.3594 22.8273 39.9326 21.7719L39.9248 21.7641C39.8472 21.6322 39.7308 21.5313 39.5911 21.477C38.2718 20.9415 36.9214 20.3982 35.6176 19.8783L34.8648 19.5756L48.5625 22.9981L48.3917 22.8041C48.3219 22.7187 48.221 22.6644 48.1201 22.6411C47.2199 22.3539 46.3274 22.059 45.4271 21.7719C42.4626 20.8173 39.4048 19.8239 36.3859 18.8694C35.8815 18.7142 35.703 18.5046 35.7107 18.0933C35.7107 17.8217 35.5322 17.7363 35.3615 17.682C34.6165 17.4336 33.8637 17.1775 33.1342 16.9214L31.194 16.254L53.1335 21.9193L53.2111 21.9349L53.2344 21.8572C53.2422 21.8417 53.2422 21.8184 53.2499 21.8029L53.2732 21.7331L30.1541 14.2983ZM29.6574 15.7108L29.6031 15.897L33.0721 17.0844C33.8016 17.3328 34.5544 17.5966 35.2994 17.845C35.4702 17.8993 35.5478 17.9536 35.54 18.1088C35.5322 18.7064 35.9125 18.9082 36.3238 19.0323C39.3427 19.9869 42.4082 20.9725 45.3651 21.9349C45.8928 22.1056 46.4128 22.2763 46.9405 22.4471L34.2284 19.2729L34.1586 19.2574L34.0887 19.4514L34.2595 19.5213C34.3293 19.5523 34.4069 19.5834 34.4768 19.6144L35.54 20.0412C36.8438 20.5612 38.1864 21.1045 39.5135 21.6399C39.6221 21.6787 39.7075 21.7564 39.7618 21.8495C40.2042 22.9282 40.9026 23.9061 41.7796 24.6744C41.896 24.7753 42.0047 24.8839 42.1056 24.9926C42.1987 25.0857 42.2918 25.1788 42.3927 25.272C42.5712 25.4349 42.7109 25.5824 42.6721 25.8385C42.6566 25.9239 42.7109 26.0092 42.7575 26.0791C42.7652 26.0946 42.7807 26.1101 42.7885 26.1256C42.9127 26.3274 42.9127 26.5447 42.7885 26.7853C42.7342 26.8862 42.6333 26.956 42.5169 26.9716C42.3849 26.9871 42.253 26.9405 42.1676 26.8319C41.671 26.2576 41.2752 25.7686 40.9182 25.2952C40.2197 24.364 39.529 23.4637 38.6288 22.7187C38.2795 22.4238 37.8605 22.2298 37.4103 22.1522C36.3083 21.9504 35.214 21.7253 34.3914 21.5468C34.112 21.477 33.8326 21.3838 33.561 21.2674C32.9169 21.0191 32.4435 20.6233 32.1253 20.08C31.8459 19.5989 31.52 19.1332 31.2095 18.6909C30.3481 17.4569 29.1219 16.7817 27.5697 16.6964C27.3757 16.6809 27.1895 16.6731 26.9955 16.6731C26.5686 16.6731 26.1418 16.7119 25.7149 16.7817C24.9544 16.9292 24.2016 16.8283 23.5342 16.7352C22.8124 16.6343 21.9743 16.5256 21.1439 16.4636L21.1206 16.6188L28.501 18.4969C28.4778 18.4969 28.4545 18.4891 28.4312 18.4891C27.6629 18.3727 26.8946 18.2485 26.1263 18.1321C24.0619 17.8139 21.92 17.488 19.8246 17.131C19.227 17.0301 18.6294 16.8438 18.0551 16.6653C17.8068 16.5877 17.5507 16.5101 17.2946 16.4325C17.1549 16.3937 17.1161 16.3316 17.1394 16.1997C17.2868 15.4779 17.085 14.7717 16.891 14.0965L16.7436 13.5921L16.728 14.1043C16.728 14.1819 16.728 14.2595 16.7203 14.3371C16.7203 14.5001 16.7125 14.6708 16.7048 14.8416C16.6892 15.0744 16.666 15.3072 16.6427 15.5323C16.6116 15.8272 16.5883 16.1376 16.5651 16.4325C16.5573 16.5334 16.534 16.6032 16.4952 16.6265C16.4564 16.6576 16.3788 16.6576 16.2779 16.6265C15.9752 16.5489 15.6726 16.4791 15.3699 16.4015C14.7646 16.254 14.136 16.0988 13.5229 15.9281C13.0339 15.7884 12.545 15.6332 12.0716 15.4779C11.6836 15.3538 11.2878 15.2218 10.892 15.1054C10.6902 15.0511 10.4729 15.0511 10.2711 15.0977C9.9995 15.152 9.78996 15.3305 9.7046 15.5633C9.63475 15.7728 9.68131 15.9979 9.83653 16.1764C10.1314 16.5101 10.0383 16.8361 9.93742 17.1775C9.91413 17.2551 9.89085 17.325 9.87533 17.4026C9.83653 17.5501 9.7046 17.6044 9.61923 17.6277C9.40969 17.6742 9.17687 17.6044 9.0527 17.4492C8.52497 16.8128 8.36199 16.091 8.56377 15.2994C8.62586 15.0201 8.72675 14.7407 8.85868 14.4923C9.15359 13.9568 9.68907 13.8482 10.0849 13.8482C10.3565 13.8482 10.6281 13.8792 10.8997 13.9103C11.086 13.9336 11.28 13.9568 11.4663 13.9646C11.7767 13.9801 12.0871 13.9879 12.3976 13.9956C12.5295 13.9956 12.6537 14.0034 12.7856 14.0034L12.8166 14.0267L12.8632 13.9879C12.8787 13.9801 12.8942 13.9491 12.902 13.918L12.9331 13.8482H12.8865C12.7778 13.5998 12.6614 13.3437 12.5528 13.0954C12.3355 12.6065 12.1104 12.0943 11.8931 11.5976C11.7767 11.3337 11.5206 11.1242 11.2024 11.0388C10.9075 10.9612 10.6204 11.0078 10.4108 11.1707C10.0383 11.4579 9.68907 11.4812 9.35536 11.2561C8.90524 10.9534 8.51721 10.969 8.15245 11.3104C8.09037 11.357 8.02052 11.3958 7.93515 11.4191C7.72561 11.4967 7.5704 11.4501 7.44623 11.2561L7.3531 11.1164C7.12804 10.775 6.90298 10.4257 6.65464 10.092C6.53047 9.92127 6.53047 9.7971 6.65464 9.65741C6.81761 9.45563 7.00387 9.26161 7.19013 9.08312C7.3919 8.90462 7.46175 8.70284 7.3919 8.47778C7.32982 8.276 7.3919 8.11303 7.5704 7.95781C8.20678 7.39904 8.89748 7.08861 9.68131 7.01877C9.81325 7.00325 9.92966 6.94116 10.015 6.83251C10.2866 6.45224 10.5272 6.35911 10.9541 6.47552C11.1403 6.51432 11.3111 6.58417 11.4663 6.68506C11.8698 6.97997 12.3277 7.06533 12.9641 6.9722C13.8721 6.84027 14.6482 7.04981 15.3466 7.60082C15.4786 7.70947 15.7191 7.68619 15.8123 7.67067C16.0839 7.63186 16.3633 7.57754 16.6349 7.53098C17.0152 7.46113 17.4032 7.39128 17.7913 7.34472C18.1327 7.29815 18.482 7.39904 18.8234 7.63963C18.9321 7.71723 19.0485 7.78708 19.1571 7.86469C19.3046 7.96558 19.4598 8.06646 19.6073 8.17511L18.2336 7.96558L18.1793 8.16735L25.0941 10.3792L18.2026 8.78045L18.1327 8.76493L18.0784 8.9279L19.9953 9.49443C20.0574 9.50996 20.1117 9.53324 20.1738 9.55652C20.3212 9.60308 20.4687 9.65741 20.6239 9.68845C20.9111 9.7583 21.1594 9.91351 21.3534 10.1308C21.4931 10.2705 21.6716 10.3714 21.8656 10.4102C24.3258 10.8914 26.8247 11.3725 29.2849 11.8382C30.1153 11.9934 31.0776 12.1719 32.0322 12.3038C32.8781 12.4202 33.5921 12.1564 34.2207 11.4889C35.2296 10.4335 36.1143 9.26161 36.8516 8.00438C37.682 6.56089 37.8294 4.96994 37.876 3.74375C37.8915 2.9832 37.9536 2.21489 38.07 1.45434C38.1786 0.771397 38.59 0.197105 39.366 -0.346145C39.7385 -0.610009 40.2275 -0.679855 40.6621 -0.524641C40.8871 -0.454795 41.0346 -0.338384 41.0811 -0.198691C41.1277 -0.0589987 41.0889 0.111737 40.957 0.297994C40.8095 0.507533 40.6465 0.717072 40.4913 0.926611C40.3439 1.12839 40.1809 1.33017 40.0412 1.53971C39.6609 2.05967 39.4514 2.67277 39.4436 3.31691C39.4281 4.45773 39.2496 5.65288 38.8771 7.07309C38.652 7.92677 38.2407 8.75717 37.5267 9.7583C36.8438 10.7206 36.0755 11.6286 35.2296 12.4435C35.1287 12.5444 35.0356 12.6453 34.9347 12.7539C34.8881 12.8083 34.8338 12.8626 34.7794 12.9247L34.7018 13.01L44.4183 16.7895L31.2018 13.0644L31.1397 13.2584L33.0255 13.9724C33.1885 14.0344 33.3592 14.0965 33.5222 14.1586C33.9413 14.3216 34.3759 14.4846 34.8027 14.632C35.0744 14.7252 35.183 14.8493 35.1752 15.0977C35.1752 15.183 35.183 15.2762 35.1985 15.3771C35.1985 15.3926 35.2063 15.4081 35.2063 15.4314L28.2915 13.6697L28.2372 13.856L51.5038 21.3683L29.6574 15.7108Z" fill="#131413"/>
<path d="M8.4707 14.5147L8.49398 14.375L8.36205 14.4216C8.16027 14.4992 7.95849 14.5768 7.75671 14.6466C7.28331 14.8174 6.83319 14.9803 6.40635 15.2054C6.05711 15.3839 5.76997 15.7254 5.52162 16.028L5.49058 16.0668C5.34313 16.2609 5.26552 16.4937 5.25 16.742C5.25776 16.936 5.34313 17.1223 5.5061 17.2387C5.56043 17.2775 5.62251 17.2853 5.69236 17.2853C5.75445 17.2853 5.82429 17.2775 5.89414 17.262C5.9407 17.2542 5.98727 17.2465 6.02607 17.2465C6.06487 17.2465 6.09592 17.2309 6.12696 17.2232C6.15024 17.2154 6.17352 17.2077 6.18905 17.2077C6.63917 17.2853 6.84095 17.2387 7.05049 16.8274C7.23674 16.4549 7.53165 16.2609 7.99729 16.1832C8.09818 16.16 8.18355 16.0901 8.23011 15.997L8.23787 15.9815C8.29996 15.64 8.35428 15.2985 8.41637 14.9027C8.43189 14.7863 8.44741 14.6544 8.4707 14.5147ZM8.2534 14.8872C8.19131 15.2752 8.13698 15.609 8.0749 15.9504C8.05162 15.997 8.01281 16.028 7.96625 16.0436C7.45404 16.1289 7.12033 16.354 6.90303 16.7731C6.7323 17.1068 6.60812 17.1378 6.21233 17.068C6.158 17.0602 6.11144 17.0757 6.07264 17.0912C6.04935 17.099 6.02607 17.1068 6.01055 17.1068C5.96399 17.1068 5.91742 17.1145 5.87086 17.1223C5.76997 17.1378 5.65356 17.1533 5.60699 17.1223C5.49058 17.0292 5.42074 16.8895 5.41297 16.7498C5.42074 16.5402 5.49058 16.3385 5.61475 16.1677L5.6458 16.1289C5.9019 15.8263 6.158 15.5158 6.48395 15.3451C6.90303 15.1278 7.34539 14.9648 7.8188 14.7941C7.97401 14.7398 8.13698 14.6777 8.29996 14.6156C8.27668 14.7165 8.26892 14.8018 8.2534 14.8872Z" fill="#131413"/>
<path d="M37.2165 23.1532C35.7419 22.7885 34.2519 22.4237 32.7851 22.0667C32.4126 21.9736 32.0245 21.8727 31.6598 21.7796C30.7984 21.5545 29.8981 21.3217 29.0056 21.1665C27.6553 20.9259 26.2661 20.7319 24.9313 20.5456C24.3725 20.468 23.7982 20.3904 23.2317 20.305C22.8669 20.2507 22.5022 20.2041 22.1374 20.1498L21.5398 20.0645L21.5321 20.1421C21.5321 20.1576 21.5243 20.1731 21.5243 20.1886L21.5088 20.2662L37.8451 23.5024L37.5502 23.2851C37.4493 23.2231 37.3329 23.1687 37.2165 23.1532ZM23.6119 20.5146C24.0465 20.5767 24.4811 20.6387 24.908 20.7008C26.2428 20.8871 27.6242 21.0811 28.9824 21.3217C29.8671 21.4769 30.7596 21.7097 31.621 21.9348C31.9935 22.0279 32.3738 22.1288 32.7541 22.2219C33.5767 22.4237 34.4148 22.6255 35.2452 22.835L23.6119 20.5146Z" fill="#131413"/>
<path d="M23.5109 19.699C23.9299 19.7533 24.3568 19.8076 24.7758 19.8619L25.2337 19.9163L25.2648 19.7145L16.6271 17.9218L16.5495 17.9062L16.5029 18.1158L16.5728 18.1391C16.7901 18.2089 17.0074 18.271 17.2247 18.3408C17.7214 18.4961 18.2336 18.659 18.7458 18.8065C18.8777 18.8453 19.0096 18.8841 19.1416 18.9229C19.6926 19.0859 20.2669 19.2566 20.8412 19.3575C21.4543 19.4662 22.0829 19.536 22.696 19.6058C22.9598 19.6291 23.2392 19.6602 23.5109 19.699ZM19.1804 18.7677C19.0484 18.7289 18.9165 18.6901 18.7846 18.6513C18.3733 18.5349 17.9542 18.4029 17.5506 18.2788L23.7902 19.5748C23.7049 19.567 23.6195 19.5515 23.5341 19.5438C23.2625 19.5127 22.9831 19.4817 22.7115 19.4506C22.1062 19.3808 21.4775 19.3109 20.8722 19.2023C20.2979 19.0936 19.7314 18.9307 19.1804 18.7677Z" fill="#131413"/>
<path d="M10.7368 15.4307C10.6281 15.4074 10.5195 15.4074 10.4186 15.4229C10.3332 15.4307 10.178 15.4695 10.1081 15.5781C10.0849 15.6247 10.0538 15.6946 10.0926 15.8032C10.147 15.9584 10.3177 16.1447 10.4729 16.168C10.8842 16.23 11.3111 16.2766 11.7224 16.3232C12.0328 16.362 12.351 16.393 12.6692 16.4396C12.9874 16.4861 13.3056 16.5405 13.616 16.6025C13.7557 16.6336 13.9031 16.6569 14.0428 16.6802L14.1127 16.6957L14.1748 16.4396L13.3754 16.2068C12.514 15.9507 11.6215 15.6868 10.7368 15.4307ZM13.6393 16.4473C13.3288 16.3852 13.0029 16.3232 12.6847 16.2844C12.3665 16.2456 12.0483 16.2068 11.7379 16.168C11.3266 16.1214 10.9075 16.0748 10.4962 16.0127C10.4186 15.9972 10.2866 15.8653 10.2401 15.7489C10.2246 15.6946 10.2323 15.6713 10.2401 15.6635C10.2634 15.6247 10.341 15.5937 10.4419 15.5781C10.4807 15.5704 10.5195 15.5704 10.5583 15.5704C10.6048 15.5704 10.6514 15.5781 10.698 15.5859C11.5749 15.842 12.4674 16.1059 13.3366 16.3542L13.6781 16.4551C13.6626 16.4473 13.6548 16.4473 13.6393 16.4473Z" fill="#131413"/>
<path d="M7.9196 8.72622L7.89632 8.73398C7.81871 8.77278 7.80319 8.87367 7.78767 8.99784C7.77991 9.05217 7.77215 9.10649 7.76439 9.16082L7.72559 9.32379L8.7112 8.80383L8.61807 8.72622C8.3542 8.50892 8.10586 8.63309 7.9196 8.72622Z" fill="#131413"/>
<path d="M10.8456 6.7168C10.5352 6.72456 10.1161 6.98842 9.92984 7.30661L9.80566 7.50839L10.2247 7.33765C10.5196 7.22124 10.6981 7.1902 10.8068 7.25229C10.9154 7.30661 11.0008 7.46183 11.0784 7.74897C11.1405 7.98179 11.156 8.23014 11.1638 8.46296C11.1715 8.57161 11.1793 8.68026 11.1871 8.78891L11.2104 8.98293L11.3345 8.82771C11.7303 8.3155 11.6372 7.26005 11.156 6.83321C11.0707 6.76336 10.962 6.72456 10.8456 6.7168ZM11.3345 8.50952C11.3345 8.494 11.3345 8.47072 11.3345 8.4552C11.319 8.20685 11.3035 7.95075 11.2414 7.71017C11.1483 7.3687 11.0474 7.1902 10.8844 7.11259C10.8223 7.08155 10.7525 7.06603 10.6749 7.06603C10.5662 7.06603 10.4343 7.09707 10.2635 7.15916C10.442 7.00394 10.6749 6.88753 10.8456 6.87977C10.9232 6.88753 11.0008 6.91082 11.0551 6.96514C11.4044 7.26781 11.5208 8.02836 11.3345 8.50952Z" fill="#131413"/>
</g>
</g>
<defs>
<clipPath id="clip0_1856_9892">
<rect width="48" height="27.8687" fill="white" transform="translate(5.25 -0.75)"/>
</clipPath>
</defs>
</svg>
