<svg width="18" height="16" viewBox="0 0 18 16" fill="none" xmlns="http://www.w3.org/2000/svg">
<path d="M18 4.6621C18 4.77734 17.9958 4.89113 17.9873 5.00348C17.9646 5.27226 17.9219 5.53897 17.8594 5.80137V5.80479C16.7366 10.5413 9.4801 15.3234 9.16976 15.5248C9.11928 15.5578 9.06029 15.5753 9 15.5753C8.9397 15.5753 8.88072 15.5578 8.83024 15.5248C8.52207 15.3234 1.26434 10.5413 0.140586 5.80479V5.80137C0.0784249 5.53975 0.0356877 5.27388 0.0127241 5.00596C0.00434479 4.89144 0 4.77723 0 4.6621C9.73053e-05 3.576 0.379576 2.52404 1.07287 1.688C1.76616 0.851964 2.72971 0.284357 3.79703 0.0832589C4.86435 -0.117839 5.9684 0.0602041 6.91839 0.586625C7.86839 1.11305 8.60467 1.95478 9 2.96637C9.39477 1.9541 10.1309 1.11163 11.0811 0.584669C12.0313 0.0577069 13.1357 -0.120606 14.2035 0.08057C15.2712 0.281746 16.2351 0.84976 16.9283 1.68637C17.6216 2.52298 18.0007 3.57557 18 4.6621Z" fill="#F16868"/>
</svg>
