<svg width="24" height="25" viewBox="0 0 24 25" fill="none" xmlns="http://www.w3.org/2000/svg">
<path d="M19.4298 13.9292C19.4698 13.6092 19.4998 13.2892 19.4998 12.9492C19.4998 12.6092 19.4698 12.2892 19.4298 11.9692L21.5398 10.3192C21.7298 10.1692 21.7798 9.89922 21.6598 9.67922L19.6598 6.21922C19.5698 6.05922 19.3998 5.96922 19.2198 5.96922C19.1598 5.96922 19.0998 5.97922 19.0498 5.99922L16.5598 6.99922C16.0398 6.59922 15.4798 6.26922 14.8698 6.01922L14.4898 3.36922C14.4598 3.12922 14.2498 2.94922 13.9998 2.94922H9.99984C9.74984 2.94922 9.53984 3.12922 9.50984 3.36922L9.12984 6.01922C8.51984 6.26922 7.95984 6.60922 7.43984 6.99922L4.94984 5.99922C4.88984 5.97922 4.82984 5.96922 4.76984 5.96922C4.59984 5.96922 4.42984 6.05922 4.33984 6.21922L2.33984 9.67922C2.20984 9.89922 2.26984 10.1692 2.45984 10.3192L4.56984 11.9692C4.52984 12.2892 4.49984 12.6192 4.49984 12.9492C4.49984 13.2792 4.52984 13.6092 4.56984 13.9292L2.45984 15.5792C2.26984 15.7292 2.21984 15.9992 2.33984 16.2192L4.33984 19.6792C4.42984 19.8392 4.59984 19.9292 4.77984 19.9292C4.83984 19.9292 4.89984 19.9192 4.94984 19.8992L7.43984 18.8992C7.95984 19.2992 8.51984 19.6292 9.12984 19.8792L9.50984 22.5292C9.53984 22.7692 9.74984 22.9492 9.99984 22.9492H13.9998C14.2498 22.9492 14.4598 22.7692 14.4898 22.5292L14.8698 19.8792C15.4798 19.6292 16.0398 19.2892 16.5598 18.8992L19.0498 19.8992C19.1098 19.9192 19.1698 19.9292 19.2298 19.9292C19.3998 19.9292 19.5698 19.8392 19.6598 19.6792L21.6598 16.2192C21.7798 15.9992 21.7298 15.7292 21.5398 15.5792L19.4298 13.9292ZM17.4498 12.2192C17.4898 12.5292 17.4998 12.7392 17.4998 12.9492C17.4998 13.1592 17.4798 13.3792 17.4498 13.6792L17.3098 14.8092L18.1998 15.5092L19.2798 16.3492L18.5798 17.5592L17.3098 17.0492L16.2698 16.6292L15.3698 17.3092C14.9398 17.6292 14.5298 17.8692 14.1198 18.0392L13.0598 18.4692L12.8998 19.5992L12.6998 20.9492H11.2998L11.1098 19.5992L10.9498 18.4692L9.88984 18.0392C9.45984 17.8592 9.05984 17.6292 8.65984 17.3292L7.74984 16.6292L6.68984 17.0592L5.41984 17.5692L4.71984 16.3592L5.79984 15.5192L6.68984 14.8192L6.54984 13.6892C6.51984 13.3792 6.49984 13.1492 6.49984 12.9492C6.49984 12.7492 6.51984 12.5192 6.54984 12.2192L6.68984 11.0892L5.79984 10.3892L4.71984 9.54922L5.41984 8.33922L6.68984 8.84922L7.72984 9.26922L8.62984 8.58922C9.05984 8.26922 9.46984 8.02922 9.87984 7.85922L10.9398 7.42922L11.0998 6.29922L11.2998 4.94922H12.6898L12.8798 6.29922L13.0398 7.42922L14.0998 7.85922C14.5298 8.03922 14.9298 8.26922 15.3298 8.56922L16.2398 9.26922L17.2998 8.83922L18.5698 8.32922L19.2698 9.53922L18.1998 10.3892L17.3098 11.0892L17.4498 12.2192ZM11.9998 8.94922C9.78984 8.94922 7.99984 10.7392 7.99984 12.9492C7.99984 15.1592 9.78984 16.9492 11.9998 16.9492C14.2098 16.9492 15.9998 15.1592 15.9998 12.9492C15.9998 10.7392 14.2098 8.94922 11.9998 8.94922ZM11.9998 14.9492C10.8998 14.9492 9.99984 14.0492 9.99984 12.9492C9.99984 11.8492 10.8998 10.9492 11.9998 10.9492C13.0998 10.9492 13.9998 11.8492 13.9998 12.9492C13.9998 14.0492 13.0998 14.9492 11.9998 14.9492Z" fill="#757B75"/>
</svg>
