<svg width="25" height="24" viewBox="0 0 25 24" fill="none" xmlns="http://www.w3.org/2000/svg">
<g clip-path="url(#clip0_2523_16189)">
<path d="M12.5 4.5C7.5 4.5 3.23 7.61 1.5 12C3.23 16.39 7.5 19.5 12.5 19.5C17.5 19.5 21.77 16.39 23.5 12C21.77 7.61 17.5 4.5 12.5 4.5ZM12.5 17C9.74 17 7.5 14.76 7.5 12C7.5 9.24 9.74 7 12.5 7C15.26 7 17.5 9.24 17.5 12C17.5 14.76 15.26 17 12.5 17ZM12.5 9C10.84 9 9.5 10.34 9.5 12C9.5 13.66 10.84 15 12.5 15C14.16 15 15.5 13.66 15.5 12C15.5 10.34 14.16 9 12.5 9Z" fill="#566FFE"/>
<circle cx="19.5" cy="18" r="4.5" fill="#FCFCFC" stroke="#566FFE"/>
<mask id="path-3-inside-1_2523_16189" fill="white">
<path fill-rule="evenodd" clip-rule="evenodd" d="M19.5 15.5C19.1548 15.5 18.875 15.7798 18.875 16.125V17.375L17.625 17.375C17.2798 17.375 17 17.6548 17 18C17 18.3452 17.2798 18.625 17.625 18.625H18.875V19.875C18.875 20.2202 19.1548 20.5 19.5 20.5C19.8452 20.5 20.125 20.2202 20.125 19.875V18.625H21.375C21.7202 18.625 22 18.3452 22 18C22 17.6548 21.7202 17.375 21.375 17.375L20.125 17.375V16.125C20.125 15.7798 19.8452 15.5 19.5 15.5Z"/>
</mask>
<path fill-rule="evenodd" clip-rule="evenodd" d="M19.5 15.5C19.1548 15.5 18.875 15.7798 18.875 16.125V17.375L17.625 17.375C17.2798 17.375 17 17.6548 17 18C17 18.3452 17.2798 18.625 17.625 18.625H18.875V19.875C18.875 20.2202 19.1548 20.5 19.5 20.5C19.8452 20.5 20.125 20.2202 20.125 19.875V18.625H21.375C21.7202 18.625 22 18.3452 22 18C22 17.6548 21.7202 17.375 21.375 17.375L20.125 17.375V16.125C20.125 15.7798 19.8452 15.5 19.5 15.5Z" fill="#566FFE"/>
<path d="M18.875 17.375L18.875 18.375L19.875 18.375V17.375H18.875ZM17.625 17.375L17.625 16.375H17.625V17.375ZM18.875 18.625H19.875V17.625H18.875V18.625ZM20.125 18.625V17.625H19.125V18.625H20.125ZM21.375 17.375V18.375V17.375ZM20.125 17.375H19.125V18.375H20.125V17.375ZM19.875 16.125C19.875 16.3321 19.7071 16.5 19.5 16.5V14.5C18.6025 14.5 17.875 15.2275 17.875 16.125H19.875ZM19.875 17.375V16.125H17.875V17.375H19.875ZM17.625 18.375H18.875L18.875 16.375L17.625 16.375L17.625 18.375ZM18 18C18 18.2071 17.8321 18.375 17.625 18.375V16.375C16.7275 16.375 16 17.1025 16 18H18ZM17.625 17.625C17.8321 17.625 18 17.7929 18 18H16C16 18.8975 16.7275 19.625 17.625 19.625V17.625ZM18.875 17.625H17.625V19.625H18.875V17.625ZM19.875 19.875V18.625H17.875V19.875H19.875ZM19.5 19.5C19.7071 19.5 19.875 19.6679 19.875 19.875H17.875C17.875 20.7725 18.6025 21.5 19.5 21.5V19.5ZM19.125 19.875C19.125 19.6679 19.2929 19.5 19.5 19.5V21.5C20.3975 21.5 21.125 20.7725 21.125 19.875H19.125ZM19.125 18.625V19.875H21.125V18.625H19.125ZM21.375 17.625H20.125V19.625H21.375V17.625ZM21 18C21 17.7929 21.1679 17.625 21.375 17.625V19.625C22.2725 19.625 23 18.8975 23 18H21ZM21.375 18.375C21.1679 18.375 21 18.2071 21 18H23C23 17.1025 22.2725 16.375 21.375 16.375V18.375ZM20.125 18.375L21.375 18.375V16.375L20.125 16.375V18.375ZM19.125 16.125V17.375H21.125V16.125H19.125ZM19.5 16.5C19.2929 16.5 19.125 16.3321 19.125 16.125H21.125C21.125 15.2275 20.3975 14.5 19.5 14.5V16.5Z" fill="#566FFE" mask="url(#path-3-inside-1_2523_16189)"/>
</g>
<defs>
<clipPath id="clip0_2523_16189">
<rect width="24" height="24" fill="white" transform="translate(0.5)"/>
</clipPath>
</defs>
</svg>
