<svg width="22" height="25" viewBox="0 0 22 25" fill="none" xmlns="http://www.w3.org/2000/svg">
<path d="M8.88794 11.0166C8.20394 11.0166 7.66394 11.6166 7.66394 12.3486C7.66394 13.0806 8.21594 13.6806 8.88794 13.6806C9.57194 13.6806 10.1119 13.0806 10.1119 12.3486C10.1239 11.6166 9.57194 11.0166 8.88794 11.0166ZM13.2679 11.0166C12.5839 11.0166 12.0439 11.6166 12.0439 12.3486C12.0439 13.0806 12.5959 13.6806 13.2679 13.6806C13.9519 13.6806 14.4919 13.0806 14.4919 12.3486C14.4919 11.6166 13.9519 11.0166 13.2679 11.0166Z" fill="#757B75"/>
<path d="M19.0999 0.94873H3.01994C1.66394 0.94873 0.559937 2.05273 0.559937 3.42073V19.6447C0.559937 21.0127 1.66394 22.1167 3.01994 22.1167H16.6279L15.9919 19.8967L17.5279 21.3247L18.9799 22.6687L21.5599 24.9487V3.42073C21.5599 2.05273 20.4559 0.94873 19.0999 0.94873ZM14.4679 16.6207C14.4679 16.6207 14.0359 16.1047 13.6759 15.6487C15.2479 15.2047 15.8479 14.2207 15.8479 14.2207C15.3559 14.5447 14.8879 14.7727 14.4679 14.9287C13.8679 15.1807 13.2919 15.3487 12.7279 15.4447C11.5759 15.6607 10.5199 15.6007 9.61994 15.4327C8.93594 15.3007 8.34794 15.1087 7.85594 14.9167C7.57994 14.8087 7.27994 14.6767 6.97994 14.5087C6.94394 14.4847 6.90794 14.4727 6.87194 14.4487C6.84794 14.4367 6.83594 14.4247 6.82394 14.4127C6.60794 14.2927 6.48794 14.2087 6.48794 14.2087C6.48794 14.2087 7.06394 15.1687 8.58794 15.6247C8.22794 16.0807 7.78394 16.6207 7.78394 16.6207C5.13194 16.5367 4.12394 14.7967 4.12394 14.7967C4.12394 10.9327 5.85194 7.80073 5.85194 7.80073C7.57994 6.50473 9.22394 6.54073 9.22394 6.54073L9.34394 6.68473C7.18394 7.30873 6.18794 8.25673 6.18794 8.25673C6.18794 8.25673 6.45194 8.11273 6.89594 7.90873C8.17994 7.34473 9.19994 7.18873 9.61994 7.15273C9.69194 7.14073 9.75194 7.12873 9.82394 7.12873C10.5559 7.03273 11.3839 7.00873 12.2479 7.10473C13.3879 7.23673 14.6119 7.57273 15.8599 8.25673C15.8599 8.25673 14.9119 7.35673 12.8719 6.73273L13.0399 6.54073C13.0399 6.54073 14.6839 6.50473 16.4119 7.80073C16.4119 7.80073 18.1399 10.9327 18.1399 14.7967C18.1399 14.7967 17.1199 16.5367 14.4679 16.6207Z" fill="#757B75"/>
</svg>
