<svg width="24" height="25" viewBox="0 0 24 25" fill="none" xmlns="http://www.w3.org/2000/svg">
<path d="M12 15.0487C10.875 15.0487 9.9 14.1487 9.9 12.9487C9.9 11.8237 10.8 10.8487 12 10.8487C13.125 10.8487 14.1 11.7487 14.1 12.9487C14.1 14.0737 13.125 15.0487 12 15.0487Z" fill="#757B75"/>
<path fill-rule="evenodd" clip-rule="evenodd" d="M14.55 7.84873H9.45C8.85 7.92373 8.55 7.99873 8.325 8.07373C8.025 8.14873 7.8 8.29873 7.575 8.52373C7.39696 8.70177 7.31284 8.87981 7.21116 9.09501C7.18437 9.15172 7.15628 9.21117 7.125 9.27373C7.1134 9.30854 7.1 9.34514 7.08564 9.38437C7.00718 9.59873 6.9 9.89155 6.9 10.3987V15.4987C6.975 16.0987 7.05 16.3987 7.125 16.6237C7.2 16.9237 7.35 17.1487 7.575 17.3737C7.75304 17.5518 7.93108 17.6359 8.14628 17.7376C8.20304 17.7644 8.26239 17.7924 8.325 17.8237C8.35981 17.8353 8.39641 17.8487 8.43564 17.8631C8.65 17.9415 8.94282 18.0487 9.45 18.0487H14.55C15.15 17.9737 15.45 17.8987 15.675 17.8237C15.975 17.7487 16.2 17.5987 16.425 17.3737C16.603 17.1957 16.6872 17.0177 16.7888 16.8025C16.8156 16.7457 16.8437 16.6863 16.875 16.6237C16.8866 16.5889 16.9 16.5523 16.9144 16.5131C16.9928 16.2987 17.1 16.0059 17.1 15.4987V10.3987C17.025 9.79873 16.95 9.49873 16.875 9.27373C16.8 8.97373 16.65 8.74873 16.425 8.52373C16.247 8.34569 16.0689 8.26157 15.8537 8.15989C15.797 8.13312 15.7375 8.10498 15.675 8.07373C15.6402 8.06213 15.6036 8.04873 15.5644 8.03437C15.35 7.95591 15.0572 7.84873 14.55 7.84873ZM12 9.72373C10.2 9.72373 8.775 11.1487 8.775 12.9487C8.775 14.7487 10.2 16.1737 12 16.1737C13.8 16.1737 15.225 14.7487 15.225 12.9487C15.225 11.1487 13.8 9.72373 12 9.72373ZM16.05 9.64873C16.05 10.0629 15.7142 10.3987 15.3 10.3987C14.8858 10.3987 14.55 10.0629 14.55 9.64873C14.55 9.23451 14.8858 8.89873 15.3 8.89873C15.7142 8.89873 16.05 9.23451 16.05 9.64873Z" fill="#757B75"/>
<path fill-rule="evenodd" clip-rule="evenodd" d="M0 4.69873C0 2.62766 1.67893 0.94873 3.75 0.94873H20.25C22.3211 0.94873 24 2.62766 24 4.69873V21.1987C24 23.2698 22.3211 24.9487 20.25 24.9487H3.75C1.67893 24.9487 0 23.2698 0 21.1987V4.69873ZM9.45 6.72373H14.55C15.225 6.79873 15.675 6.87373 16.05 7.02373C16.5 7.24873 16.8 7.39873 17.175 7.77373C17.55 8.14873 17.775 8.52373 17.925 8.89873C18.075 9.27373 18.225 9.72373 18.225 10.3987V15.4987C18.15 16.1737 18.075 16.6237 17.925 16.9987C17.7 17.4487 17.55 17.7487 17.175 18.1237C16.8 18.4987 16.425 18.7237 16.05 18.8737C15.675 19.0237 15.225 19.1737 14.55 19.1737H9.45C8.775 19.0987 8.325 19.0237 7.95 18.8737C7.5 18.6487 7.2 18.4987 6.825 18.1237C6.45 17.7487 6.225 17.3737 6.075 16.9987C5.925 16.6237 5.775 16.1737 5.775 15.4987V10.3987C5.85 9.72373 5.925 9.27373 6.075 8.89873C6.3 8.44873 6.45 8.14873 6.825 7.77373C7.2 7.39873 7.575 7.17373 7.95 7.02373C8.325 6.87373 8.775 6.72373 9.45 6.72373Z" fill="#757B75"/>
</svg>
