<svg width="24" height="25" viewBox="0 0 24 25" fill="none" xmlns="http://www.w3.org/2000/svg">
<path fill-rule="evenodd" clip-rule="evenodd" d="M3.75 0.94873H20.25C22.3211 0.94873 24 2.62766 24 4.69873V21.1987C24 23.2698 22.3211 24.9487 20.25 24.9487H3.75C1.67894 24.9487 0 23.2698 0 21.1987V4.69873C0 2.62766 1.67894 0.94873 3.75 0.94873ZM7.27501 9.72373C7.34999 9.79873 7.425 9.94873 7.425 10.0987V15.3487C7.5 15.5737 7.425 15.7237 7.27501 15.8737L6 17.3737V17.5987H9.52501V17.3737L8.25 15.8737C8.175 15.7237 8.09999 15.5737 8.09999 15.3487V10.7737L11.25 17.5987H11.55L14.25 10.7737V16.2487C14.25 16.3987 14.25 16.4737 14.175 16.5487L13.2 17.5237V17.7487H17.925V17.5237L17.025 16.6237C16.95 16.5487 16.95 16.3987 16.95 16.3237V9.57373C16.875 9.42373 16.95 9.34873 17.025 9.27373L18 8.37373V8.14873H14.7L12.3 14.0737L9.59999 8.14873H6.15001V8.37373L7.27501 9.72373Z" fill="#757B75"/>
</svg>
