<svg width="24" height="25" viewBox="0 0 24 25" fill="none" xmlns="http://www.w3.org/2000/svg">
<path d="M18 17.0287C17.24 17.0287 16.56 17.3287 16.04 17.7987L8.91 13.6487C8.96 13.4187 9 13.1887 9 12.9487C9 12.7087 8.96 12.4787 8.91 12.2487L15.96 8.13873C16.5 8.63873 17.21 8.94873 18 8.94873C19.66 8.94873 21 7.60873 21 5.94873C21 4.28873 19.66 2.94873 18 2.94873C16.34 2.94873 15 4.28873 15 5.94873C15 6.18873 15.04 6.41873 15.09 6.64873L8.04 10.7587C7.5 10.2587 6.79 9.94873 6 9.94873C4.34 9.94873 3 11.2887 3 12.9487C3 14.6087 4.34 15.9487 6 15.9487C6.79 15.9487 7.5 15.6387 8.04 15.1387L15.16 19.2987C15.11 19.5087 15.08 19.7287 15.08 19.9487C15.08 21.5587 16.39 22.8687 18 22.8687C19.61 22.8687 20.92 21.5587 20.92 19.9487C20.92 18.3387 19.61 17.0287 18 17.0287Z" fill="#757B75"/>
</svg>
