<svg width="24" height="25" viewBox="0 0 24 25" fill="none" xmlns="http://www.w3.org/2000/svg">
<g clip-path="url(#clip0_1448_3234)">
<path fill-rule="evenodd" clip-rule="evenodd" d="M24 12.9487C24 19.5761 18.6274 24.9487 12 24.9487C5.37258 24.9487 0 19.5761 0 12.9487C0 6.32131 5.37258 0.94873 12 0.94873C18.6274 0.94873 24 6.32131 24 12.9487ZM12.43 9.80766C11.2628 10.2931 8.93014 11.2979 5.43189 12.8221C4.86383 13.048 4.56626 13.2689 4.53917 13.485C4.49339 13.8502 4.95071 13.994 5.57347 14.1899C5.65818 14.2165 5.74595 14.2441 5.83594 14.2733C6.44864 14.4725 7.27283 14.7055 7.70129 14.7148C8.08994 14.7232 8.52373 14.5629 9.00264 14.2341C12.2712 12.0277 13.9584 10.9125 14.0643 10.8885C14.139 10.8715 14.2426 10.8502 14.3128 10.9126C14.3829 10.9749 14.376 11.093 14.3686 11.1247C14.3233 11.3179 12.5281 12.9868 11.5991 13.8505C11.3095 14.1198 11.1041 14.3107 11.0621 14.3544C10.968 14.4521 10.8721 14.5445 10.78 14.6333C10.2108 15.1821 9.78391 15.5936 10.8036 16.2655C11.2936 16.5884 11.6858 16.8555 12.0769 17.1219C12.5042 17.4128 12.9303 17.703 13.4816 18.0644C13.6221 18.1565 13.7562 18.2521 13.8869 18.3453C14.3841 18.6997 14.8307 19.0181 15.3826 18.9674C15.7032 18.9379 16.0345 18.6363 16.2027 17.7371C16.6002 15.6119 17.3816 11.0072 17.5622 9.1097C17.578 8.94346 17.5581 8.7307 17.5422 8.6373C17.5262 8.54391 17.4928 8.41084 17.3714 8.31233C17.2276 8.19567 17.0056 8.17107 16.9064 8.17281C16.455 8.18077 15.7626 8.42155 12.43 9.80766Z" fill="#757B75"/>
</g>
<defs>
<clipPath id="clip0_1448_3234">
<rect width="24" height="24" fill="white" transform="translate(0 0.94873)"/>
</clipPath>
</defs>
</svg>
