<svg width="24" height="25" viewBox="0 0 24 25" fill="none" xmlns="http://www.w3.org/2000/svg">
<g clip-path="url(#clip0_1448_3224)">
<path d="M7.55016 22.699C16.6045 22.699 21.5583 15.1957 21.5583 8.69084C21.5583 8.4799 21.5536 8.26427 21.5442 8.05334C22.5079 7.35644 23.3395 6.49323 24 5.50427C23.1025 5.90357 22.1496 6.16436 21.1739 6.27771C22.2013 5.66188 22.9705 4.69445 23.3391 3.55474C22.3726 4.12753 21.3156 4.53159 20.2134 4.74959C19.4708 3.96054 18.489 3.43809 17.4197 3.26303C16.3504 3.08796 15.2532 3.27003 14.2977 3.78107C13.3423 4.29212 12.5818 5.10368 12.1338 6.09029C11.6859 7.07689 11.5754 8.18359 11.8195 9.23927C9.86249 9.14107 7.94794 8.63268 6.19998 7.74707C4.45203 6.86147 2.90969 5.61841 1.67297 4.09849C1.0444 5.18222 0.852057 6.46462 1.13503 7.68507C1.418 8.90551 2.15506 9.97242 3.19641 10.669C2.41463 10.6441 1.64998 10.4337 0.965625 10.0549V10.1158C0.964925 11.2531 1.3581 12.3556 2.07831 13.2357C2.79852 14.1159 3.80132 14.7195 4.91625 14.944C4.19206 15.1421 3.43198 15.171 2.69484 15.0283C3.00945 16.0064 3.62157 16.8619 4.44577 17.4753C5.26997 18.0887 6.26512 18.4296 7.29234 18.4502C5.54842 19.8201 3.39417 20.5631 1.17656 20.5596C0.783287 20.559 0.390399 20.5349 0 20.4874C2.25286 21.9327 4.87353 22.7004 7.55016 22.699Z" fill="#757B75"/>
</g>
<defs>
<clipPath id="clip0_1448_3224">
<rect width="24" height="24" fill="white" transform="translate(0 0.94873)"/>
</clipPath>
</defs>
</svg>
